<svg width="327" height="85" viewBox="0 0 327 85" fill="none" xmlns="http://www.w3.org/2000/svg">
<rect width="327" height="85" rx="10" fill="#52B6DF"/>
<mask id="mask0_77_290" style="mask-type:alpha" maskUnits="userSpaceOnUse" x="0" y="0" width="327" height="85">
<rect width="327" height="85" rx="10" fill="#52B6DF"/>
</mask>
<g mask="url(#mask0_77_290)">
<circle opacity="0.08" cx="290" cy="31" r="66" fill="white"/>
<circle opacity="0.08" cx="290" cy="31" r="46" fill="white"/>
<circle opacity="0.08" cx="290" cy="31" r="27" fill="white"/>
</g>
<path opacity="0.4" d="M54 14.7196C54 14.3222 54.3223 13.9991 54.7196 14.0089C60.2036 14.145 65.5422 15.8342 70.1115 18.8874C74.8806 22.0739 78.5976 26.6031 80.7925 31.9022C82.9874 37.2012 83.5617 43.0322 82.4428 48.6576C81.3238 54.2831 78.5618 59.4504 74.5061 63.5061C70.4504 67.5618 65.2831 70.3238 59.6576 71.4428C54.0322 72.5617 48.2012 71.9874 42.9022 69.7925C37.6031 67.5976 33.0739 63.8806 29.8874 59.1115C26.8342 54.5422 25.145 49.2036 25.0089 43.7196C24.9991 43.3223 25.3222 43 25.7196 43C26.117 43 26.4382 43.3223 26.4486 43.7196C26.5844 48.9189 28.189 53.9793 31.084 58.312C34.1125 62.8443 38.4169 66.3768 43.4529 68.4628C48.489 70.5489 54.0306 71.0947 59.3768 70.0312C64.7231 68.9678 69.634 66.3429 73.4884 62.4884C77.3429 58.634 79.9678 53.7231 81.0312 48.3768C82.0947 43.0306 81.5489 37.489 79.4628 32.4529C77.3768 27.4169 73.8443 23.1125 69.312 20.084C64.9793 17.189 59.9189 15.5844 54.7196 15.4486C54.3223 15.4382 54 15.117 54 14.7196Z" fill="white"/>
<path d="M54 14.7196C54 14.3222 54.3223 13.9991 54.7196 14.0089C58.9207 14.1132 63.0522 15.1295 66.8264 16.9907C70.8159 18.9581 74.2993 21.8169 77.0072 25.3459C79.7152 28.8749 81.575 32.9796 82.4428 37.3424C83.3106 41.7052 83.1631 46.2091 82.0118 50.5058C80.8606 54.8024 78.7363 58.7767 75.8034 62.121C72.8704 65.4654 69.2075 68.0902 65.0978 69.7925C60.9882 71.4948 56.542 72.2288 52.1033 71.9379C47.9041 71.6627 43.8181 70.4771 40.1276 68.4668C39.7786 68.2767 39.6611 67.8357 39.8598 67.4915C40.0585 67.1474 40.4982 67.0303 40.8474 67.22C44.3465 69.1202 48.2185 70.241 52.1974 70.5018C56.4159 70.7783 60.6414 70.0806 64.5471 68.4629C68.4527 66.8451 71.9339 64.3505 74.7213 61.1721C77.5087 57.9937 79.5275 54.2167 80.6217 50.1333C81.7158 46.0498 81.856 41.7694 81.0312 37.6232C80.2065 33.4769 78.439 29.5759 75.8654 26.2221C73.2919 22.8682 69.9813 20.1512 66.1898 18.2815C62.6136 16.5179 58.6999 15.5525 54.7196 15.4486C54.3223 15.4382 54 15.117 54 14.7196Z" fill="white"/>
<path d="M66 43.5652V41.6665C66 38.4839 64.7357 35.4317 62.4853 33.1812C60.2348 30.9308 57.1826 29.6665 54 29.6665C50.8174 29.6665 47.7652 30.9308 45.5147 33.1812C43.2643 35.4317 42 38.4839 42 41.6665V43.5652C40.6016 44.1809 39.4571 45.2584 38.7582 46.6173C38.0593 47.9761 37.8484 49.5337 38.1607 51.0295C38.4731 52.5252 39.2899 53.8683 40.4742 54.8338C41.6586 55.7993 43.1387 56.3286 44.6667 56.3332C45.3739 56.3332 46.0522 56.0522 46.5523 55.5521C47.0524 55.052 47.3333 54.3737 47.3333 53.6665V45.6665C47.3333 44.9593 47.0524 44.281 46.5523 43.7809C46.0522 43.2808 45.3739 42.9998 44.6667 42.9998V41.6665C44.6667 39.1912 45.65 36.8172 47.4003 35.0668C49.1507 33.3165 51.5247 32.3332 54 32.3332C56.4754 32.3332 58.8493 33.3165 60.5997 35.0668C62.35 36.8172 63.3333 39.1912 63.3333 41.6665V42.9998C62.6261 42.9998 61.9478 43.2808 61.4477 43.7809C60.9476 44.281 60.6667 44.9593 60.6667 45.6665V53.6665H56.6667C56.3131 53.6665 55.9739 53.807 55.7239 54.057C55.4738 54.3071 55.3333 54.6462 55.3333 54.9998C55.3333 55.3535 55.4738 55.6926 55.7239 55.9426C55.9739 56.1927 56.3131 56.3332 56.6667 56.3332H63.3333C64.8614 56.3286 66.3414 55.7993 67.5258 54.8338C68.7101 53.8683 69.5269 52.5252 69.8393 51.0295C70.1517 49.5337 69.9407 47.9761 69.2418 46.6173C68.5429 45.2584 67.3985 44.1809 66 43.5652ZM44.6667 53.6665C43.6058 53.6665 42.5884 53.2451 41.8382 52.4949C41.0881 51.7448 40.6667 50.7274 40.6667 49.6665C40.6667 48.6056 41.0881 47.5882 41.8382 46.8381C42.5884 46.0879 43.6058 45.6665 44.6667 45.6665V53.6665ZM63.3333 53.6665V45.6665C64.3942 45.6665 65.4116 46.0879 66.1618 46.8381C66.9119 47.5882 67.3333 48.6056 67.3333 49.6665C67.3333 50.7274 66.9119 51.7448 66.1618 52.4949C65.4116 53.2451 64.3942 53.6665 63.3333 53.6665Z" fill="white"/>
<path d="M116.71 37.185V49H114.772V43.832H109.213V49H107.275V37.185H109.213V42.251H114.772V37.185H116.71ZM123.324 49.153C122.44 49.153 121.641 48.9547 120.927 48.558C120.213 48.15 119.652 47.5833 119.244 46.858C118.836 46.1213 118.632 45.2713 118.632 44.308C118.632 43.356 118.842 42.5117 119.261 41.775C119.681 41.0383 120.253 40.4717 120.978 40.075C121.704 39.6783 122.514 39.48 123.409 39.48C124.305 39.48 125.115 39.6783 125.84 40.075C126.566 40.4717 127.138 41.0383 127.557 41.775C127.977 42.5117 128.186 43.356 128.186 44.308C128.186 45.26 127.971 46.1043 127.54 46.841C127.11 47.5777 126.52 48.15 125.772 48.558C125.036 48.9547 124.22 49.153 123.324 49.153ZM123.324 47.47C123.823 47.47 124.288 47.351 124.718 47.113C125.16 46.875 125.517 46.518 125.789 46.042C126.061 45.566 126.197 44.988 126.197 44.308C126.197 43.628 126.067 43.0557 125.806 42.591C125.546 42.115 125.2 41.758 124.769 41.52C124.339 41.282 123.874 41.163 123.375 41.163C122.877 41.163 122.412 41.282 121.981 41.52C121.562 41.758 121.228 42.115 120.978 42.591C120.729 43.0557 120.604 43.628 120.604 44.308C120.604 45.3167 120.859 46.0987 121.369 46.654C121.891 47.198 122.542 47.47 123.324 47.47ZM142.682 39.633L139.775 49H137.735L135.848 42.081L133.961 49H131.921L128.997 39.633H130.969L132.924 47.164L134.913 39.633H136.936L138.84 47.13L140.778 39.633H142.682ZM147.9 44.308C147.9 43.3447 148.093 42.5003 148.478 41.775C148.875 41.0383 149.419 40.4717 150.11 40.075C150.802 39.6783 151.595 39.48 152.49 39.48C153.624 39.48 154.559 39.752 155.295 40.296C156.043 40.8287 156.548 41.5937 156.808 42.591H154.717C154.547 42.1263 154.275 41.7637 153.901 41.503C153.527 41.2423 153.057 41.112 152.49 41.112C151.697 41.112 151.062 41.3953 150.586 41.962C150.122 42.5173 149.889 43.2993 149.889 44.308C149.889 45.3167 150.122 46.1043 150.586 46.671C151.062 47.2377 151.697 47.521 152.49 47.521C153.612 47.521 154.355 47.028 154.717 46.042H156.808C156.536 46.994 156.026 47.7533 155.278 48.32C154.53 48.8753 153.601 49.153 152.49 49.153C151.595 49.153 150.802 48.9547 150.11 48.558C149.419 48.15 148.875 47.5833 148.478 46.858C148.093 46.1213 147.9 45.2713 147.9 44.308ZM158.094 44.274C158.094 43.3333 158.287 42.5003 158.672 41.775C159.069 41.0497 159.601 40.4887 160.27 40.092C160.95 39.684 161.698 39.48 162.514 39.48C163.251 39.48 163.891 39.6273 164.435 39.922C164.99 40.2053 165.432 40.5623 165.761 40.993V39.633H167.716V49H165.761V47.606C165.432 48.048 164.985 48.4163 164.418 48.711C163.851 49.0057 163.205 49.153 162.48 49.153C161.675 49.153 160.939 48.949 160.27 48.541C159.601 48.1217 159.069 47.5437 158.672 46.807C158.287 46.059 158.094 45.2147 158.094 44.274ZM165.761 44.308C165.761 43.662 165.625 43.101 165.353 42.625C165.092 42.149 164.747 41.7863 164.316 41.537C163.885 41.2877 163.421 41.163 162.922 41.163C162.423 41.163 161.959 41.2877 161.528 41.537C161.097 41.775 160.746 42.132 160.474 42.608C160.213 43.0727 160.083 43.628 160.083 44.274C160.083 44.92 160.213 45.4867 160.474 45.974C160.746 46.4613 161.097 46.8353 161.528 47.096C161.97 47.3453 162.435 47.47 162.922 47.47C163.421 47.47 163.885 47.3453 164.316 47.096C164.747 46.8467 165.092 46.484 165.353 46.008C165.625 45.5207 165.761 44.954 165.761 44.308ZM174.987 39.48C175.724 39.48 176.381 39.633 176.959 39.939C177.549 40.245 178.008 40.6983 178.336 41.299C178.665 41.8997 178.829 42.625 178.829 43.475V49H176.908V43.764C176.908 42.9253 176.699 42.285 176.279 41.843C175.86 41.3897 175.288 41.163 174.562 41.163C173.837 41.163 173.259 41.3897 172.828 41.843C172.409 42.285 172.199 42.9253 172.199 43.764V49H170.261V39.633H172.199V40.704C172.517 40.3187 172.919 40.0183 173.406 39.803C173.905 39.5877 174.432 39.48 174.987 39.48ZM198.297 39.633L195.39 49H193.35L191.463 42.081L189.576 49H187.536L184.612 39.633H186.584L188.539 47.164L190.528 39.633H192.551L194.455 47.13L196.393 39.633H198.297ZM208.331 44.087C208.331 44.4383 208.308 44.7557 208.263 45.039H201.106C201.162 45.787 201.44 46.3877 201.939 46.841C202.437 47.2943 203.049 47.521 203.775 47.521C204.817 47.521 205.554 47.0847 205.985 46.212H208.076C207.792 47.0733 207.277 47.7817 206.529 48.337C205.792 48.881 204.874 49.153 203.775 49.153C202.879 49.153 202.075 48.9547 201.361 48.558C200.658 48.15 200.103 47.5833 199.695 46.858C199.298 46.1213 199.1 45.2713 199.1 44.308C199.1 43.3447 199.292 42.5003 199.678 41.775C200.074 41.0383 200.624 40.4717 201.327 40.075C202.041 39.6783 202.857 39.48 203.775 39.48C204.659 39.48 205.446 39.6727 206.138 40.058C206.829 40.4433 207.367 40.9873 207.753 41.69C208.138 42.3813 208.331 43.1803 208.331 44.087ZM206.308 43.475C206.296 42.761 206.041 42.1887 205.543 41.758C205.044 41.3273 204.426 41.112 203.69 41.112C203.021 41.112 202.449 41.3273 201.973 41.758C201.497 42.1773 201.213 42.7497 201.123 43.475H206.308ZM219.499 39.48C220.213 39.48 220.848 39.633 221.403 39.939C221.97 40.245 222.412 40.6983 222.729 41.299C223.058 41.8997 223.222 42.625 223.222 43.475V49H221.301V43.764C221.301 42.9253 221.091 42.285 220.672 41.843C220.253 41.3897 219.68 41.163 218.955 41.163C218.23 41.163 217.652 41.3897 217.221 41.843C216.802 42.285 216.592 42.9253 216.592 43.764V49H214.654V36.42H216.592V40.721C216.921 40.3243 217.334 40.0183 217.833 39.803C218.343 39.5877 218.898 39.48 219.499 39.48ZM234.279 44.087C234.279 44.4383 234.256 44.7557 234.211 45.039H227.054C227.111 45.787 227.388 46.3877 227.887 46.841C228.386 47.2943 228.998 47.521 229.723 47.521C230.766 47.521 231.502 47.0847 231.933 46.212H234.024C233.741 47.0733 233.225 47.7817 232.477 48.337C231.74 48.881 230.822 49.153 229.723 49.153C228.828 49.153 228.023 48.9547 227.309 48.558C226.606 48.15 226.051 47.5833 225.643 46.858C225.246 46.1213 225.048 45.2713 225.048 44.308C225.048 43.3447 225.241 42.5003 225.626 41.775C226.023 41.0383 226.572 40.4717 227.275 40.075C227.989 39.6783 228.805 39.48 229.723 39.48C230.607 39.48 231.395 39.6727 232.086 40.058C232.777 40.4433 233.316 40.9873 233.701 41.69C234.086 42.3813 234.279 43.1803 234.279 44.087ZM232.256 43.475C232.245 42.761 231.99 42.1887 231.491 41.758C230.992 41.3273 230.375 41.112 229.638 41.112C228.969 41.112 228.397 41.3273 227.921 41.758C227.445 42.1773 227.162 42.7497 227.071 43.475H232.256ZM238.124 36.42V49H236.186V36.42H238.124ZM242.607 41.01C242.935 40.5793 243.383 40.2167 243.95 39.922C244.516 39.6273 245.157 39.48 245.871 39.48C246.687 39.48 247.429 39.684 248.098 40.092C248.778 40.4887 249.31 41.0497 249.696 41.775C250.081 42.5003 250.274 43.3333 250.274 44.274C250.274 45.2147 250.081 46.059 249.696 46.807C249.31 47.5437 248.778 48.1217 248.098 48.541C247.429 48.949 246.687 49.153 245.871 49.153C245.157 49.153 244.522 49.0113 243.967 48.728C243.411 48.4333 242.958 48.0707 242.607 47.64V53.454H240.669V39.633H242.607V41.01ZM248.302 44.274C248.302 43.628 248.166 43.0727 247.894 42.608C247.633 42.132 247.282 41.775 246.84 41.537C246.409 41.2877 245.944 41.163 245.446 41.163C244.958 41.163 244.494 41.2877 244.052 41.537C243.621 41.7863 243.27 42.149 242.998 42.625C242.737 43.101 242.607 43.662 242.607 44.308C242.607 44.954 242.737 45.5207 242.998 46.008C243.27 46.484 243.621 46.8467 244.052 47.096C244.494 47.3453 244.958 47.47 245.446 47.47C245.944 47.47 246.409 47.3453 246.84 47.096C247.282 46.8353 247.633 46.4613 247.894 45.974C248.166 45.4867 248.302 44.92 248.302 44.274ZM265.038 39.633L259.292 53.403H257.286L259.19 48.847L255.501 39.633H257.66L260.295 46.773L263.032 39.633H265.038ZM270.564 49.153C269.68 49.153 268.881 48.9547 268.167 48.558C267.453 48.15 266.892 47.5833 266.484 46.858C266.076 46.1213 265.872 45.2713 265.872 44.308C265.872 43.356 266.081 42.5117 266.501 41.775C266.92 41.0383 267.492 40.4717 268.218 40.075C268.943 39.6783 269.753 39.48 270.649 39.48C271.544 39.48 272.354 39.6783 273.08 40.075C273.805 40.4717 274.377 41.0383 274.797 41.775C275.216 42.5117 275.426 43.356 275.426 44.308C275.426 45.26 275.21 46.1043 274.78 46.841C274.349 47.5777 273.76 48.15 273.012 48.558C272.275 48.9547 271.459 49.153 270.564 49.153ZM270.564 47.47C271.062 47.47 271.527 47.351 271.958 47.113C272.4 46.875 272.757 46.518 273.029 46.042C273.301 45.566 273.437 44.988 273.437 44.308C273.437 43.628 273.306 43.0557 273.046 42.591C272.785 42.115 272.439 41.758 272.009 41.52C271.578 41.282 271.113 41.163 270.615 41.163C270.116 41.163 269.651 41.282 269.221 41.52C268.801 41.758 268.467 42.115 268.218 42.591C267.968 43.0557 267.844 43.628 267.844 44.308C267.844 45.3167 268.099 46.0987 268.609 46.654C269.13 47.198 269.782 47.47 270.564 47.47ZM285.824 39.633V49H283.886V47.895C283.58 48.2803 283.178 48.5863 282.679 48.813C282.192 49.0283 281.671 49.136 281.115 49.136C280.379 49.136 279.716 48.983 279.126 48.677C278.548 48.371 278.089 47.9177 277.749 47.317C277.421 46.7163 277.256 45.991 277.256 45.141V39.633H279.177V44.852C279.177 45.6907 279.387 46.3367 279.806 46.79C280.226 47.232 280.798 47.453 281.523 47.453C282.249 47.453 282.821 47.232 283.24 46.79C283.671 46.3367 283.886 45.6907 283.886 44.852V39.633H285.824ZM291.56 37.015C292.716 37.015 293.64 37.3323 294.331 37.967C295.034 38.6017 295.385 39.4687 295.385 40.568C295.385 41.7127 295.023 42.574 294.297 43.152C293.572 43.73 292.609 44.019 291.407 44.019L291.339 45.362H289.656L289.571 42.693H290.132C291.232 42.693 292.07 42.5457 292.648 42.251C293.238 41.9563 293.532 41.3953 293.532 40.568C293.532 39.9673 293.357 39.497 293.005 39.157C292.665 38.817 292.189 38.647 291.577 38.647C290.965 38.647 290.484 38.8113 290.132 39.14C289.781 39.4687 289.605 39.9277 289.605 40.517H287.786C287.786 39.837 287.939 39.2307 288.245 38.698C288.551 38.1653 288.988 37.7517 289.554 37.457C290.132 37.1623 290.801 37.015 291.56 37.015ZM290.472 49.119C290.121 49.119 289.826 49 289.588 48.762C289.35 48.524 289.231 48.2293 289.231 47.878C289.231 47.5267 289.35 47.232 289.588 46.994C289.826 46.756 290.121 46.637 290.472 46.637C290.812 46.637 291.101 46.756 291.339 46.994C291.577 47.232 291.696 47.5267 291.696 47.878C291.696 48.2293 291.577 48.524 291.339 48.762C291.101 49 290.812 49.119 290.472 49.119Z" fill="white"/>
<circle cx="94" cy="15" r="2" fill="white"/>
<circle cx="25.5" cy="23.5" r="3.5" fill="white"/>
<circle cx="79.5" cy="74.5" r="1.5" fill="white"/>
<circle cx="27.5" cy="70.5" r="1.5" fill="white"/>
</svg>
