<svg width="62" height="62" viewBox="0 0 62 62" fill="none" xmlns="http://www.w3.org/2000/svg">
<rect width="62" height="62" rx="31" fill="#52B6DF"/>
<path d="M23 30.7254C23 30.3457 23.2822 30.0319 23.6482 29.9822L23.75 29.9754L36.934 29.976L32.171 25.2325C31.8775 24.9402 31.8765 24.4653 32.1687 24.1718C32.4344 23.905 32.851 23.8799 33.1451 24.0971L33.2294 24.1695L39.2794 30.1935C39.3181 30.2321 39.3517 30.2737 39.3802 30.3178C39.3883 30.331 39.3965 30.3446 39.4042 30.3584C39.4114 30.3703 39.4178 30.3826 39.4239 30.395C39.4324 30.4131 39.4407 30.4319 39.4482 30.4509C39.4543 30.4657 39.4594 30.48 39.464 30.4944C39.4696 30.5123 39.4749 30.5314 39.4796 30.5507C39.483 30.5642 39.4857 30.5773 39.4881 30.5903C39.4914 30.6097 39.4943 30.6299 39.4963 30.6502C39.498 30.6657 39.4991 30.6811 39.4997 30.6965C39.4998 30.7058 39.5 30.7156 39.5 30.7254L39.4996 30.7545C39.4991 30.7692 39.498 30.7839 39.4966 30.7986L39.5 30.7254C39.5 30.7727 39.4956 30.819 39.4872 30.8639C39.4853 30.8747 39.483 30.8857 39.4804 30.8966C39.4751 30.9192 39.4689 30.9409 39.4618 30.9623C39.4584 30.9728 39.4543 30.9842 39.45 30.9954C39.4412 31.018 39.4317 31.0395 39.4212 31.0604C39.4163 31.0703 39.4109 31.0806 39.4052 31.0908C39.3958 31.1075 39.3861 31.1233 39.3759 31.1387C39.3687 31.1496 39.3607 31.161 39.3524 31.1722L39.3459 31.1808C39.3257 31.2072 39.3038 31.2323 39.2803 31.2557L39.2794 31.2564L33.2294 37.2814C32.9359 37.5737 32.4611 37.5727 32.1688 37.2792C31.9031 37.0124 31.8797 36.5957 32.0982 36.3025L32.171 36.2186L36.932 31.476L23.75 31.4754C23.3358 31.4754 23 31.1396 23 30.7254Z" fill="white"/>
</svg>
