<svg width="50" height="50" viewBox="0 0 50 50" fill="none" xmlns="http://www.w3.org/2000/svg">
<circle opacity="0.15" cx="25" cy="25" r="25" fill="#4178D4"/>
<g clip-path="url(#clip0_19_94)">
<path d="M35.2 15.1627C34.6299 14.687 33.9611 14.3443 33.242 14.1594C32.523 13.9745 31.7718 13.952 31.043 14.0937L29.279 14.5257C28.3584 14.6944 27.5262 15.1805 26.9271 15.8995C26.3279 16.6185 25.9999 17.5248 26 18.4607V33.9277C25.3369 34.0247 24.6631 34.0247 24 33.9277V18.4607C24.0033 17.5334 23.6828 16.6341 23.0939 15.9179C22.5049 15.2017 21.6844 14.7135 20.774 14.5377L18.9 14.0817C18.1792 13.9498 17.4381 13.9779 16.7294 14.1641C16.0206 14.3504 15.3615 14.6901 14.7986 15.1593C14.2357 15.6285 13.7828 16.2157 13.472 16.8794C13.1612 17.543 13 18.2669 13 18.9997V29.7927C13.0001 30.9635 13.411 32.0971 14.1611 32.996C14.9113 33.8949 15.9531 34.5021 17.105 34.7117L23.391 35.8547C24.455 36.048 25.545 36.048 26.609 35.8547L32.9 34.7117C34.051 34.5011 35.0916 33.8934 35.8408 32.9946C36.5899 32.0958 37.0002 30.9627 37 29.7927V18.9997C37.0005 18.2671 36.8394 17.5435 36.5283 16.8803C36.2171 16.2171 35.7636 15.6306 35.2 15.1627Z" fill="#4178D4"/>
</g>
<defs>
<clipPath id="clip0_19_94">
<rect width="24" height="24" fill="white" transform="translate(13 13)"/>
</clipPath>
</defs>
</svg>
