<svg width="50" height="50" viewBox="0 0 50 50" fill="none" xmlns="http://www.w3.org/2000/svg">
<circle opacity="0.15" cx="25" cy="25" r="25" fill="#64748B"/>
<path d="M22.8449 17.4811C22.9043 17.602 22.9436 17.7315 22.9612 17.8647L23.286 22.6946L23.4472 25.1222C23.4489 25.3719 23.4881 25.6199 23.5635 25.8583C23.7582 26.3209 24.2267 26.615 24.7364 26.5945L32.5033 26.0864C32.8396 26.0809 33.1644 26.2067 33.4062 26.4361C33.6076 26.6273 33.7377 26.8774 33.7787 27.1465L33.7924 27.3098C33.4711 31.7603 30.2024 35.4724 25.7611 36.4306C21.3199 37.3888 16.7655 35.3646 14.5709 31.457C13.9382 30.3217 13.543 29.0739 13.4085 27.7868C13.3523 27.4057 13.3276 27.0209 13.3345 26.6359C13.3276 21.8645 16.7254 17.7394 21.4818 16.745C22.0542 16.6558 22.6154 16.9589 22.8449 17.4811Z" fill="#64748B"/>
<path opacity="0.4" d="M26.015 13.334C31.3349 13.4693 35.806 17.2948 36.6667 22.4473L36.6584 22.4854L36.635 22.5407L36.6382 22.6924C36.626 22.8935 36.5484 23.087 36.4146 23.2432C36.2753 23.406 36.0849 23.5169 35.8752 23.5599L35.7473 23.5774L26.7864 24.1581C26.4883 24.1874 26.1916 24.0913 25.9699 23.8936C25.7852 23.7289 25.6671 23.5064 25.6337 23.2668L25.0323 14.3189C25.0218 14.2887 25.0218 14.2559 25.0323 14.2256C25.0405 13.979 25.1491 13.7458 25.3337 13.5783C25.5184 13.4107 25.7637 13.3227 26.015 13.334Z" fill="#64748B"/>
</svg>
