<svg width="50" height="50" viewBox="0 0 50 50" fill="none" xmlns="http://www.w3.org/2000/svg">
<circle opacity="0.15" cx="25" cy="25" r="25" fill="#46BD84"/>
<g clip-path="url(#clip0_19_105)">
<path d="M33.678 20.3933C32.762 21.3093 32.971 23.2313 33.703 24.5603C33.9824 25.0871 34.0634 25.6968 33.9311 26.2784C33.7988 26.8599 33.4621 27.3746 32.9823 27.7288C32.5025 28.083 31.9114 28.2531 31.3168 28.2083C30.7221 28.1634 30.1632 27.9065 29.742 27.4843L22.516 20.2583C22.0963 19.8365 21.8416 19.2784 21.798 18.685C21.7544 18.0916 21.9248 17.5022 22.2784 17.0236C22.6319 16.545 23.1452 16.209 23.7252 16.0763C24.3052 15.9436 24.9136 16.023 25.44 16.3003C26.769 17.0313 28.691 17.2413 29.607 16.3253L32.086 13.8433C32.6343 13.3196 33.3633 13.0273 34.1215 13.0273C34.8797 13.0273 35.6087 13.3196 36.157 13.8433C36.4248 14.1107 36.6372 14.4283 36.7821 14.7779C36.927 15.1276 37.0016 15.5023 37.0016 15.8808C37.0016 16.2592 36.927 16.6339 36.7821 16.9836C36.6372 17.3332 36.4248 17.6508 36.157 17.9183L33.678 20.3933ZM14.969 30.3473C14.4761 30.8448 14.1538 31.486 14.0487 32.1784C13.9435 32.8709 14.061 33.5788 14.384 34.2003L13.293 35.2933C13.1056 35.4808 13.0002 35.7351 13.0002 36.0003C13.0002 36.2654 13.1056 36.5197 13.293 36.7073C13.4806 36.8947 13.7349 37 14 37C14.2652 37 14.5195 36.8947 14.707 36.7073L15.8 35.6163C16.4201 35.9464 17.1301 36.0677 17.8247 35.9622C18.5192 35.8566 19.1611 35.5298 19.655 35.0303L27.055 27.6303L22.373 22.9443L14.969 30.3473Z" fill="#46BD84"/>
</g>
<defs>
<clipPath id="clip0_19_105">
<rect width="24" height="24" fill="white" transform="translate(13 13)"/>
</clipPath>
</defs>
</svg>
