<svg width="50" height="50" viewBox="0 0 50 50" fill="none" xmlns="http://www.w3.org/2000/svg">
<circle opacity="0.15" cx="25" cy="25" r="25" fill="#86242E"/>
<path d="M29.04 17C28.3843 17.0016 27.7469 17.2173 27.2251 17.6145C26.7032 18.0116 26.3254 18.5684 26.149 19.2L22.1 33.768C22.0032 34.1192 21.7948 34.4294 21.5061 34.6516C21.2175 34.8739 20.8643 34.9962 20.5 35C20.1438 34.9953 19.7974 34.8817 19.5075 34.6746C19.2176 34.4674 18.9979 34.1765 18.878 33.841L16.085 26.161C15.903 25.6377 15.598 25.1658 15.1957 24.7849C14.7934 24.4039 14.3055 24.1252 13.773 23.972C13.5153 23.9095 13.2928 23.7472 13.1547 23.5208C13.0166 23.2943 12.9741 23.0223 13.0365 22.7645C13.099 22.5067 13.2613 22.2843 13.4878 22.1462C13.7142 22.008 13.9863 21.9655 14.244 22.028C15.0982 22.2569 15.8835 22.6908 16.532 23.292C17.1804 23.8932 17.6723 24.6436 17.965 25.478L20.439 32.278L24.223 18.662C24.5177 17.6103 25.1476 16.6836 26.017 16.0227C26.8865 15.3617 27.9479 15.0026 29.04 15H36C36.2653 15 36.5196 15.1054 36.7072 15.2929C36.8947 15.4804 37 15.7348 37 16C37 16.2652 36.8947 16.5196 36.7072 16.7071C36.5196 16.8946 36.2653 17 36 17H29.04ZM36.6 25.2C36.3879 25.0409 36.1212 24.9725 35.8586 25.01C35.5961 25.0476 35.3592 25.1878 35.2 25.4L33 28.333L30.8 25.4C30.6409 25.1878 30.404 25.0476 30.1415 25.01C29.8789 24.9725 29.6122 25.0409 29.4 25.2C29.1879 25.3591 29.0476 25.596 29.0101 25.8586C28.9726 26.1211 29.0409 26.3878 29.2 26.6L31.75 30L29.2 33.4C29.0409 33.6122 28.9726 33.8789 29.0101 34.1414C29.0476 34.404 29.1879 34.6409 29.4 34.8C29.6122 34.9591 29.8789 35.0275 30.1415 34.9899C30.404 34.9524 30.6409 34.8122 30.8 34.6L33 31.667L35.2 34.6C35.2788 34.7051 35.3776 34.7936 35.4906 34.8605C35.6036 34.9274 35.7286 34.9714 35.8586 34.9899C35.9886 35.0085 36.121 35.0013 36.2482 34.9687C36.3754 34.9361 36.495 34.8788 36.6 34.8C36.7051 34.7212 36.7936 34.6225 36.8605 34.5095C36.9274 34.3965 36.9714 34.2714 36.99 34.1414C37.0086 34.0114 37.0014 33.879 36.9688 33.7518C36.9362 33.6246 36.8788 33.5051 36.8 33.4L34.25 30L36.8 26.6C36.8788 26.4949 36.9362 26.3754 36.9688 26.2482C37.0014 26.121 37.0086 25.9886 36.99 25.8586C36.9714 25.7286 36.9274 25.6035 36.8605 25.4905C36.7936 25.3775 36.7051 25.2788 36.6 25.2Z" fill="#86242E"/>
</svg>
